<svg id="Layer_1" data-name="Layer 1" xmlns="http://www.w3.org/2000/svg" viewBox="0 0 251.25 320.58"><defs><style>.cls-1{fill:#4c4b4b;}</style></defs><title>burger_drink</title><path class="cls-1" d="M125.1,253.73a18.77,18.77,0,0,1-9.37-2.33l-2.48-1.46c-4-2.39-10.86-2.39-14.9,0l-2.48,1.46c-5.26,3.1-13.49,3.1-18.74,0l-2.47-1.46c-4-2.39-10.87-2.39-14.91,0l-2.48,1.46c-5.25,3.1-13.48,3.1-18.73,0l-2.48-1.46c-4-2.39-10.87-2.39-14.9,0a1.89,1.89,0,0,1-1.92-3.25c5.25-3.1,13.48-3.1,18.74,0l2.47,1.46c4,2.39,10.86,2.39,14.9,0l2.49-1.47c5.25-3.1,13.47-3.1,18.73,0l2.48,1.46c4,2.39,10.87,2.39,14.91,0l2.48-1.46c5.25-3.1,13.47-3.1,18.73,0l2.48,1.46c4,2.39,10.86,2.4,14.9,0l2.48-1.46a1.88,1.88,0,1,1,1.91,3.25l-2.47,1.46A18.77,18.77,0,0,1,125.1,253.73Z" transform="translate(-18.31 -4.09)"/><path class="cls-1" d="M136,239H20.2a1.89,1.89,0,0,1-1.89-1.88v-3.74A46.76,46.76,0,0,1,65,186.67H91.17a46.75,46.75,0,0,1,46.7,46.7v3.74A1.88,1.88,0,0,1,136,239ZM22.08,235.23h112v-1.86a43,43,0,0,0-42.93-42.93H65a43,43,0,0,0-42.94,42.93Z" transform="translate(-18.31 -4.09)"/><path class="cls-1" d="M91.17,324.67H65A46.76,46.76,0,0,1,18.31,278v-3.73a1.89,1.89,0,0,1,1.89-1.89H136a1.89,1.89,0,0,1,1.88,1.89V278A46.76,46.76,0,0,1,91.17,324.67ZM22.08,276.11V278A43,43,0,0,0,65,320.9H91.17A43,43,0,0,0,134.1,278v-1.85Z" transform="translate(-18.31 -4.09)"/><path class="cls-1" d="M136,264.9H20.2a1.88,1.88,0,1,1,0-3.76H136a1.88,1.88,0,0,1,0,3.76Z" transform="translate(-18.31 -4.09)"/><path class="cls-1" d="M60.58,203a3.27,3.27,0,1,1-3.26-3.26A3.26,3.26,0,0,1,60.58,203Z" transform="translate(-18.31 -4.09)"/><path class="cls-1" d="M82.3,203A3.27,3.27,0,1,1,79,199.76,3.27,3.27,0,0,1,82.3,203Z" transform="translate(-18.31 -4.09)"/><path class="cls-1" d="M104,203a3.27,3.27,0,1,1-3.27-3.26A3.27,3.27,0,0,1,104,203Z" transform="translate(-18.31 -4.09)"/><path class="cls-1" d="M49.78,222.48a3.27,3.27,0,1,1-3.26-3.26A3.26,3.26,0,0,1,49.78,222.48Z" transform="translate(-18.31 -4.09)"/><path class="cls-1" d="M71.5,222.48a3.27,3.27,0,1,1-3.27-3.26A3.27,3.27,0,0,1,71.5,222.48Z" transform="translate(-18.31 -4.09)"/><path class="cls-1" d="M93.21,222.48a3.27,3.27,0,1,1-3.27-3.26A3.26,3.26,0,0,1,93.21,222.48Z" transform="translate(-18.31 -4.09)"/><path class="cls-1" d="M114.8,222.48a3.27,3.27,0,1,1-3.27-3.26A3.26,3.26,0,0,1,114.8,222.48Z" transform="translate(-18.31 -4.09)"/><path class="cls-1" d="M267.69,128.61H132.11a1.89,1.89,0,0,1-1.89-1.88v-.68a34.63,34.63,0,0,1,34.59-34.59H235a34.63,34.63,0,0,1,34.59,34.59v.68A1.88,1.88,0,0,1,267.69,128.61ZM134,124.84H265.78A30.86,30.86,0,0,0,235,95.23H164.81A30.87,30.87,0,0,0,134,124.84Z" transform="translate(-18.31 -4.09)"/><path class="cls-1" d="M199.9,95.23A1.89,1.89,0,0,1,198,93.35V36.66A1.9,1.9,0,0,1,199,35L253.11,4.33A1.89,1.89,0,0,1,255,7.61L201.78,37.76V93.35A1.88,1.88,0,0,1,199.9,95.23Z" transform="translate(-18.31 -4.09)"/><path class="cls-1" d="M147.85,197.93a1.9,1.9,0,0,1-1.1-.36,1.86,1.86,0,0,1-.78-1.4l-4.75-69.31a1.88,1.88,0,0,1,1.88-2H256.69a1.91,1.91,0,0,1,1.38.6,1.94,1.94,0,0,1,.5,1.42l-2.82,41.21a1.9,1.9,0,0,1-1.4,1.69l-106,28.1A1.59,1.59,0,0,1,147.85,197.93Zm-2.74-69.32,4.46,65,102.51-27.17,2.59-37.86Z" transform="translate(-18.31 -4.09)"/><path class="cls-1" d="M243.25,324.67H156.54a1.89,1.89,0,0,1-1.88-1.76l-3.32-48.4a1.89,1.89,0,0,1,1.4-1.95l95.08-25.2a1.89,1.89,0,0,1,2.36,1.95l-5.05,73.6A1.89,1.89,0,0,1,243.25,324.67ZM158.3,320.9h83.19l4.75-69.23-91,24.13Z" transform="translate(-18.31 -4.09)"/><path class="cls-1" d="M153.22,276.27a1.91,1.91,0,0,1-1.88-1.76L146,196.17a1.88,1.88,0,0,1,1.4-1.95l106-28.1a1.89,1.89,0,0,1,2.36,1.95l-5.57,81.24a1.9,1.9,0,0,1-1.4,1.69L153.7,276.2A1.59,1.59,0,0,1,153.22,276.27Zm-3.39-78.81L154.94,272l91.57-24.28,5.3-77.27Z" transform="translate(-18.31 -4.09)"/></svg>